<svg width="1000" height="707" viewBox="0 0 1000 707" fill="none" xmlns="http://www.w3.org/2000/svg">
<path d="M964.286 4.25747e-06H785.714L772.321 0C777.902 1.77395e-06 766.071 8.9407e-05 761.161 8.9407e-05L724.33 4.25747e-06C719.42 4.25747e-06 720.424 8.9407e-05 713.17 4.25747e-06H705.357H540.179H523.438C530.134 4.25747e-06 514.955 4.25747e-06 510.045 4.25747e-06H486.049C481.138 4.25747e-06 482.143 4.25747e-06 471.54 4.25747e-06H459.821H294.643H275.67C261.161 4.25747e-06 278.46 4.25747e-06 247.21 4.25747e-06H234.375C229.464 4.25747e-06 225.446 4.25747e-06 221.54 4.25747e-06H214.286H35.7143C15.9598 4.25747e-06 0 15.7785 0 35.3085V670.86C0 690.39 15.9598 706.169 35.7143 706.169H964.286C984.04 706.169 1000 690.39 1000 670.86V35.3085C1000 15.7785 984.04 4.25747e-06 964.286 4.25747e-06ZM401.786 511.972C401.786 516.827 397.768 520.799 392.857 520.799H187.5C182.589 520.799 178.571 516.827 178.571 511.972V459.01C178.571 454.155 182.589 450.183 187.5 450.183H392.857C397.768 450.183 401.786 454.155 401.786 459.01V511.972ZM401.786 361.912C401.786 366.766 397.768 370.739 392.857 370.739H187.5C182.589 370.739 178.571 366.766 178.571 361.912V308.949C178.571 304.094 182.589 300.122 187.5 300.122H392.857C397.768 300.122 401.786 304.094 401.786 308.949V361.912ZM819.754 261.172L635.603 513.517C633.959 515.773 631.796 517.61 629.293 518.877C626.79 520.144 624.018 520.805 621.205 520.805C618.393 520.805 615.621 520.144 613.118 518.877C610.615 517.61 608.452 515.773 606.808 513.517L479.353 338.961C475.112 333.113 479.353 324.948 486.607 324.948H547.88C553.571 324.948 558.929 327.706 562.277 332.23L621.205 412.888L736.942 254.331C740.29 249.697 745.647 247.049 751.339 247.049H812.5C819.754 247.159 823.996 255.324 819.754 261.172Z" fill="white"/>
</svg>
