<svg width="28" height="28" viewBox="0 0 28 28" fill="none" xmlns="http://www.w3.org/2000/svg">
<path d="M14 28C16.7689 28 19.4757 27.1789 21.778 25.6406C24.0803 24.1022 25.8747 21.9157 26.9343 19.3576C27.9939 16.7994 28.2712 13.9845 27.731 11.2687C27.1908 8.553 25.8574 6.05844 23.8995 4.10051C21.9416 2.14257 19.447 0.8092 16.7313 0.269007C14.0155 -0.271186 11.2006 0.00606036 8.64243 1.06569C6.08426 2.12531 3.89776 3.91973 2.35942 6.22202C0.821079 8.52431 -5.72205e-06 11.2311 -5.72205e-06 14C-5.72205e-06 17.713 1.47499 21.274 4.1005 23.8995C6.72601 26.525 10.287 28 14 28ZM5.99999 13L18.15 13L12.57 7.427L14 6L22 14L14 22L12.57 20.607L18.15 15L5.99999 15V13Z" fill="#FFFDFD"/>
</svg>
