<svg width="560" height="700" viewBox="0 0 560 700" fill="none" xmlns="http://www.w3.org/2000/svg">
<path d="M243.25 560L441 362.25L390.25 311.5L242.375 459.375L168.875 385.875L119 435.75L243.25 560ZM70 700C50.75 700 34.2767 693.152 20.58 679.455C6.88333 665.758 0.0233333 649.273 0 630V70C0 50.75 6.85999 34.2767 20.58 20.58C34.3 6.88333 50.7733 0.0233333 70 0H350L560 210V630C560 649.25 553.152 665.735 539.455 679.455C525.758 693.175 509.273 700.023 490 700H70ZM315 245V70H70V630H490V245H315Z" fill="white"/>
</svg>
