<svg width="63" height="71" viewBox="0 0 63 71" fill="none" xmlns="http://www.w3.org/2000/svg">
<path fill-rule="evenodd" clip-rule="evenodd" d="M26.9729 0.0855422C25.2182 0.400803 21.6727 1.25081 20.3675 1.66932C17.6261 2.54822 12.438 5.7596 11.7399 7.00993C11.1197 8.12097 11.3449 9.52357 12.3225 10.6375L13.2541 11.6989V16.9801C13.2541 22.1847 13.2425 22.2675 12.4611 22.6701C11.2264 23.3068 10.2471 25.4279 10.2657 27.4259C10.2783 28.7902 10.489 29.4406 11.2647 30.5104C12.2944 31.9308 14.6361 33.2834 16.1333 33.3227C16.8281 33.3409 17.1323 33.6734 17.827 35.173C18.2928 36.1789 19.4885 37.8529 20.4844 38.8938L22.2949 40.7861L21.7492 43.6312C21.4491 45.1961 21.0884 47.2072 20.9478 48.1001L20.692 49.7234L17.3311 49.9533C14.1548 50.1708 9.69733 51.291 9.69733 51.8722C9.69733 52.0056 9.40771 52.203 9.05339 52.3105C7.30483 52.8426 3.74573 57.3111 0.826501 62.6404C-0.39295 64.866 -0.245939 67.9102 1.15474 69.4476C1.64048 69.9807 3.51302 70.0157 31.434 70.0157H61.1951L61.8665 68.9605C62.8285 67.4479 62.7868 64.432 61.778 62.6011C59.981 59.3394 57.552 55.7822 56.1333 54.3348C53.2561 51.3991 49.2431 49.904 44.2061 49.8913L41.9623 49.8858L41.3644 46.3955C41.0355 44.476 40.6951 42.4328 40.608 41.8552C40.4725 40.9581 40.6829 40.5568 42.0544 39.0955C42.9372 38.1552 44.1295 36.4727 44.704 35.3565C45.5326 33.7471 45.9096 33.3273 46.5268 33.3273C46.9543 33.3273 48.0087 33.0101 48.8695 32.6221C52.7209 30.887 53.5576 26.1321 50.5632 22.9957C49.9026 22.3042 49.8406 21.8522 49.8037 17.4762C49.7817 14.8551 49.5663 11.7801 49.3254 10.6434C48.7726 8.03558 47.2432 5.78557 45.434 4.91836C44.6888 4.56089 44.0262 4.15374 43.9619 4.01316C43.5113 3.02939 41.7794 1.61055 40.1955 0.927105C38.4991 0.195283 37.8202 0.109568 33.0701 0.0258016C30.1824 -0.0251726 27.4386 0.00177557 26.9729 0.0855422Z" fill="#1F3951"/>
</svg>
