<svg width="411" height="530" viewBox="0 0 411 530" fill="none" xmlns="http://www.w3.org/2000/svg">
<path d="M151.39 526.56L150.187 523.752L146.978 520.544L145.374 516.133V511.32V507.711L143.369 505.706H140.562V503.299L136.952 502.096L135.749 500.091L136.952 496.081L139.76 492.872L140.562 491.669L139.76 488.862L140.562 486.857L135.749 486.055V482.044L129.333 483.247L124.119 476.43V472.018L121.713 467.607H119.708V463.596H118.104L116.9 465.201H112.489V460.789L116.9 455.576V453.169L120.911 451.164V447.154L119.708 444.748L121.713 442.742L119.708 439.935L120.911 437.128L124.119 433.92V430.711H127.328V425.498H131.739L133.744 422.289L141.364 421.487L143.369 417.477V413.467L144.572 409.857L145.374 407.852V404.243L143.369 402.237L139.359 399.029L136.15 398.227L130.937 399.43L127.328 401.034L124.119 402.237L120.911 404.243L118.104 405.847L116.9 407.852H114.093L106.875 399.43L102.062 394.618L100.859 389.003H97.2496L96.0464 383.79L93.2392 384.592V381.383L88.8277 376.972L86.0204 372.159L83.2132 373.363L81.208 370.956L85.2184 369.352L88.8277 368.149L87.2236 363.738L83.2132 362.535L80.0049 363.738V365.743L77.5986 362.535L74.7913 360.93L72.7861 358.524V355.717L74.7913 354.113H77.5986H80.0049L84.0153 348.899L86.0204 343.285V338.071L87.2236 334.462V326.842L88.8277 324.837V320.425L91.635 316.816V309.196L93.2392 304.785L91.635 299.17L90.8329 294.959L90.0308 290.748V279.92L86.0204 273.504L87.2236 263.879L84.0153 259.868H80.0049L72.7861 255.056H68.3747H66.3695L65.1664 249.441L60.3539 247.436L57.1456 249.441L53.5363 250.645L44.7134 248.238L36.6926 243.426L28.2708 246.233L27.0676 251.848L23.8593 255.056L19.0469 251.848L15.4375 255.056L17.8437 249.441L70.3799 210.541H77.5986L83.2132 204.926L88.4267 194.9L94.4423 190.088L96.0464 183.27L106.072 172.442L112.89 165.624V154.395L117.302 147.577L118.906 139.557H124.52L131.338 125.52H133.744V115.494L139.76 111.885L133.744 105.067L137.354 100.255L144.572 98.2495L146.176 93.437H148.182L146.176 84.2131L148.182 76.9944H151.791L157.405 68.9736L159.411 56.5414V52.932H154.598L152.593 51.3279L154.598 48.5206L161.416 46.9165L164.223 39.2967L163.02 34.0832L165.827 26.8645L163.02 22.4531L164.223 18.8437L167.833 16.0364L173.447 9.21875L175.051 13.6302L181.468 9.21875L193.9 13.6302L199.515 20.0468L204.728 24.0572H210.744L213.15 30.4738L211.546 40.9009L213.15 42.104L215.957 38.0936L219.166 34.8853L219.968 28.4686L232.801 22.4531L238.014 25.2603L248.842 42.104L260.874 64.1612V74.1871L264.884 82.609L262.879 88.6246L266.889 92.635L284.535 85.4162L286.941 88.6246L288.144 92.635L294.962 85.4162L298.17 83.411L300.577 79.4007L307.394 75.7913L313.811 84.2131L319.826 82.609H327.847L352.311 94.6402L357.524 93.437L362.738 99.4526L367.149 102.661H387.201H396.425L397.628 105.468L406.451 103.864L410.461 105.468L406.451 113.088L410.461 117.9L407.253 125.52L397.628 135.947L390.409 136.749L392.014 137.952L387.201 145.171L370.758 148.379L359.529 160.411V166.827L356.722 174.447L350.707 182.067L343.488 190.89L344.29 195.702L350.707 202.119V209.337L345.493 216.556L347.498 219.764L345.493 222.572L348.701 226.582L352.311 234.603L353.915 243.025L352.311 248.639V252.65L348.701 257.061L344.29 261.874L340.279 269.493H336.269L338.675 275.91V289.144L340.279 295.962H344.29L345.493 300.774L350.707 304.384V309.998L348.701 324.837L342.285 335.264H334.665H325.441L320.228 337.67L315.816 338.873L300.176 330.852L289.347 335.264L280.124 336.868L274.509 342.884L272.504 347.094L270.499 351.305L263.28 355.316L256.061 359.727L249.645 364.139L246.837 369.753H242.025H235.608L230.796 374.967L219.567 377.373L207.936 382.185L201.119 391.81L199.515 400.232L195.504 414.269L187.483 429.107L180.666 447.154L174.65 451.966V459.586L175.853 466.805L177.858 472.018V476.831L182.671 482.445L184.275 489.664L182.671 492.872L182.27 496.883V500.893L181.468 508.513L180.666 514.127L179.463 521.747L174.65 529.768L169.036 528.565V526.56L162.218 528.565L161.015 525.758L151.39 526.56Z" fill="#6E89AB"/>
<path d="M197.51 34.483L195.906 33.2799L187.885 39.2954H199.515L197.51 46.5142L205.932 48.9204L204.328 50.9256L203.525 56.5401L201.921 59.3474L199.515 64.1599L193.499 76.5921V72.5817L187.885 71.7797L185.078 76.5921L177.057 77.7952L175.854 82.2067L180.666 84.6129L181.468 88.2223L175.854 95.441L178.661 117.899V126.321L185.078 130.331L187.885 135.545L183.474 139.956L185.078 145.17L191.494 147.977L194.703 143.967L199.515 145.17L193.901 151.185V158.003L203.525 153.993H209.541L215.557 166.826L219.567 163.217L232.801 161.211L241.223 162.415L245.234 165.623L251.249 162.415L258.067 166.826V161.211L267.291 158.003L272.504 171.639L284.937 166.826L292.957 147.977L286.14 140.758L287.744 137.55L281.728 129.529L294.561 121.509L291.754 116.696L300.176 113.087H305.791H313.811L317.822 117.899L335.066 123.915L339.077 121.509L336.671 116.696H343.889V122.712L347.098 121.509L358.327 119.904L367.952 117.899L365.545 111.483L374.769 103.061L376.374 99.8524L371.561 95.0399H351.509L347.098 91.8316L341.884 85.816L336.671 87.0192L312.207 74.988H304.186L298.171 76.5921L291.754 68.1703L284.937 71.7797L282.53 75.79L279.322 77.7952L272.504 85.014L271.301 81.0036L268.895 77.7952L251.249 85.014L247.239 81.0036L249.244 74.988L245.234 66.5661V56.5401L233.202 34.483L222.374 17.6393L217.161 14.832L204.328 20.8476L203.525 27.2643L200.317 30.4726L197.51 34.483Z" fill="#0059C2" stroke="white" stroke-width="2"/>
<path d="M75.5933 272.702V283.53L76.3954 287.741H82.8121H88.4439L94.4422 290.347L102.463 295.561L112.89 293.556H120.51L116.9 287.741L112.89 282.327L111.286 276.712L114.093 269.894L119.307 268.691L130.937 267.488L138.557 263.077C138.156 257.997 137.353 247.597 137.353 246.634C137.353 245.672 138.156 241.955 138.557 240.217L148.181 228.988L154.598 222.572V215.353L158.207 208.134L164.624 204.926L162.619 211.343L172.645 213.749L175.051 218.16L180.666 220.968V227.384L199.114 228.988L205.931 227.384L210.744 224.176L205.931 221.77L206.733 212.546L211.947 209.337L209.541 206.53L213.15 198.108L206.733 194.9C206.466 191.157 205.851 183.591 205.53 183.27C205.209 182.949 200.049 178.858 197.509 176.853L195.905 172.041L195.103 159.609V158.405V151.588L200.718 145.572L195.905 144.369L192.697 148.379L186.28 145.572L184.676 140.359L189.088 135.947L186.28 130.734L179.864 126.723V118.301L177.056 95.8432L182.671 88.6245L181.869 85.0152L177.056 82.6089L178.259 78.1975L186.28 76.9944L189.088 72.1819L194.702 72.984V76.9944L200.718 64.5622L203.124 59.7497L204.728 56.9424L205.53 51.3279L207.134 49.3227L198.712 46.9164L200.718 39.6977H189.088L197.108 33.6821L198.712 23.2551L196.306 16.8385H190.291L185.077 12.8281L179.463 6.41143L167.03 2L160.614 6.41143L159.01 2L153.395 8.81767L149.786 11.6249L148.583 15.2343L151.39 19.6457L148.583 26.8644L149.786 32.078L146.978 39.6977L140.161 41.3019L138.156 44.1091L140.161 45.7133H144.973V49.3227L142.968 61.7549L137.353 69.7757H133.744L131.739 76.9944L133.744 86.2183H131.739L130.135 91.0308L122.916 93.036L119.307 97.8484L125.322 104.666L119.307 108.275V118.301H116.9L110.083 132.338H104.468L102.864 140.359L98.4526 147.176V158.405L91.6349 165.223L81.6089 176.051L80.0048 182.869L73.9892 187.681L68.7757 197.707L63.1611 203.322H55.9424L3.40624 242.223L1 247.837L4.60936 244.629L9.42183 247.837L12.6301 244.629L13.8333 239.014L22.2551 236.207L30.2759 241.02L39.0988 243.426L42.7081 242.223L45.9164 240.217L50.7289 242.223L51.932 247.837H53.9372H58.3486L65.5674 252.65H69.5778L72.7861 256.66L71.5829 266.285L75.5933 272.702Z" fill="#004578" stroke="white" stroke-width="2"/>
<path d="M122.914 294.76L120.107 292.754L116.497 286.939L112.487 281.525L110.883 275.911L113.69 269.093L118.904 267.89L130.534 266.687L138.153 262.275C137.752 257.196 136.95 246.795 136.95 245.833C136.95 244.87 137.752 241.154 138.153 239.416L147.778 228.187L154.195 221.77V214.552L157.804 207.333L164.221 204.125L162.216 210.541L172.242 212.948L174.648 217.359L180.263 220.166V226.583L198.71 228.187L205.528 226.583L210.341 223.375L205.528 220.968L206.33 211.744L211.544 208.536L209.137 205.729L212.747 197.307L206.33 194.099C206.063 190.356 205.448 182.789 205.127 182.469C204.806 182.148 199.646 178.057 197.106 176.052L195.502 171.239L194.7 158.807L204.325 153.594H210.341L216.356 166.427L220.367 162.818L233.601 160.812L242.023 162.016L246.033 165.224L252.049 162.016V164.021L249.241 168.432L247.236 172.042L243.627 176.052V182.068L244.83 187.682H247.236V195.302L250.445 199.713L247.236 205.729L248.439 208.536L246.033 209.739L252.049 214.552L248.439 217.359L252.851 220.166L257.663 218.562L262.476 220.166V224.177L267.288 223.375L273.304 226.583L269.694 236.208L280.924 240.619V243.427L278.116 247.036V253.854L280.924 256.26L278.116 257.062L276.512 262.275L265.283 273.104L263.278 271.499L259.668 267.89L244.83 269.093L242.023 273.104L240.419 271.499L233.601 271.9L234.804 282.728L220.768 291.15L216.757 302.78L210.341 301.176L205.528 297.968L191.492 305.588H186.278L181.867 308.796H173.846L170.237 313.207L160.211 318.822L154.596 320.827H151.388V325.239H145.372V330.051L139.758 334.062L136.549 330.051L128.529 326.442L126.523 322.832H120.107L115.294 318.822L116.096 313.207L118.904 307.192V301.176L122.914 294.76Z" fill="#004578" stroke="white" stroke-width="2"/>
<path d="M381.186 95.8438H371.962L376.775 100.656L375.171 103.865L365.947 112.286L368.353 118.703L358.728 120.708L347.499 122.312L344.291 123.515V117.5H337.072L339.478 122.312L335.468 124.719L318.223 118.703L314.213 113.891H306.192H300.577L292.156 117.5L294.963 122.312L282.13 130.333L288.145 138.354L286.541 141.562L293.359 148.781L285.338 167.63L272.906 172.442L267.692 158.807L258.468 162.015V167.63L251.651 163.218V165.224L248.843 169.635L246.838 173.244L243.229 177.255V183.27L244.432 188.885H246.838V196.505L250.046 200.916L246.838 206.932L248.041 209.739L245.635 210.942L251.651 215.755L248.041 218.562L252.453 221.369L257.265 219.765L262.078 221.369V225.379L266.89 224.577L272.906 227.786L269.296 237.411L280.525 241.822V244.629L277.718 248.239V255.056L280.525 257.463L277.718 258.265L276.114 263.478L264.885 274.306L262.88 272.702L259.27 269.093L244.432 270.296L241.625 274.306L240.02 272.702L233.203 273.103L234.406 283.931L220.369 292.353L216.359 303.983L209.942 302.379L205.13 299.171L191.094 306.79H185.88L181.469 309.999H173.448L169.838 314.41L159.812 320.025L166.63 324.035L177.859 326.441L180.266 329.65L192.698 327.645L207.536 331.254L216.359 322.832H226.786L237.213 322.03L248.041 329.65L257.265 340.277L259.27 336.066L264.885 330.051L274.109 328.447L284.937 324.035L300.577 332.056L304.989 330.853L310.202 328.447H319.426H327.046L333.463 318.02L335.468 303.181V297.567L330.254 293.957L329.051 289.145H325.041L323.437 282.327V269.093L321.03 262.676H325.041L329.051 255.056L333.463 250.244L337.072 245.832V241.822L338.676 236.208L337.072 227.786L333.463 219.765L330.254 215.755L332.259 212.947L330.254 209.739L335.468 202.52V195.302L329.051 188.885L328.249 184.072L335.468 175.25L341.483 167.63L344.291 160.01V153.593L355.52 141.562L371.962 138.354L376.775 131.135L375.171 129.932L382.389 129.13L392.014 118.703L395.223 111.083L391.212 106.271L395.223 98.651L391.212 97.0469L382.389 98.651L381.186 95.8438Z" fill="#004578" stroke="white" stroke-width="2"/>
<path d="M134.543 516.336L135.747 519.143L145.372 518.341L146.575 521.148L153.392 519.143V521.148L159.007 522.352L163.819 514.331L165.022 506.711L165.825 501.096L166.627 493.477V489.466L167.028 485.456L168.632 482.248L167.028 475.029L162.215 469.414V464.602L160.21 459.388L159.007 452.17V444.55L165.022 439.737L171.84 421.691L179.861 406.852L183.871 392.816L185.475 384.394L192.293 374.769L203.923 369.957L215.152 367.55L219.965 362.337H226.381H231.194L234.001 356.722L240.418 352.311L247.637 347.899L254.855 343.889L256.86 339.678L247.637 329.051L236.809 321.431L226.381 322.233H215.954L207.132 330.655L192.293 327.045L179.861 329.051L177.455 325.842L166.226 323.436L159.408 319.426L153.793 321.431H150.585V325.842H144.569V330.655L138.955 334.665L135.747 330.655L127.726 327.045L125.721 323.436H119.304L114.491 319.426L115.294 313.811L118.101 307.795V301.78L122.111 295.363L119.304 293.358H111.684L101.257 295.363L93.2364 290.15L87.238 287.543H81.6062H75.1896L75.9917 291.754L77.5958 297.368L75.9917 301.78V309.4L73.1844 313.009V317.42L71.5802 319.426V327.045L70.3771 330.655V335.868L68.3719 341.483L64.3615 346.696H61.9553H59.148L57.1428 348.3V351.108L59.148 353.514L61.9553 355.118L64.3615 358.326V356.321L67.5698 355.118L71.5802 356.321L73.1844 360.733L69.575 361.936L65.5647 363.54L67.5698 365.946L70.3771 364.743L73.1844 369.556L77.5958 373.967V377.175L80.4031 376.373L81.6062 381.587H85.2156L86.4187 387.201L91.2312 392.014L98.4499 400.436H101.257L102.46 398.43L105.268 396.826L108.476 394.821L111.684 393.618L115.294 392.014L120.507 390.811L123.715 391.613L127.726 394.821L129.731 396.826V400.436L128.929 402.441L127.726 406.05V410.061L125.721 414.071L118.101 414.873L116.096 418.081H111.684V423.295H108.476V426.503L105.268 429.711L104.064 432.519L106.07 435.326L104.064 437.331L105.268 439.737V443.748L101.257 445.753V448.159L96.8457 453.373V457.784H101.257L102.46 456.18H104.064V460.19H106.07L108.476 464.602V469.013L113.689 475.831L120.106 474.628V478.638L124.918 479.44L124.116 481.446L124.918 484.253L124.116 485.456L121.309 488.664L120.106 492.675L121.309 494.68L124.918 495.883V498.289H127.726L129.731 500.294V503.904V508.716L131.335 513.128L134.543 516.336Z" fill="#004578" stroke="white" stroke-width="2"/>
</svg>
