<svg width="1000" height="1000" viewBox="0 0 1000 1000" fill="none" xmlns="http://www.w3.org/2000/svg">
<g clip-path="url(#clip0_385_327)">
<path fill-rule="evenodd" clip-rule="evenodd" d="M1000 500C1000 776.15 776.15 1000 500 1000C223.85 1000 0 776.15 0 500C0 223.85 223.85 0 500 0C776.15 0 1000 223.85 1000 500ZM305.55 694.45C300.863 689.762 298.23 683.404 298.23 676.775C298.23 670.146 300.863 663.788 305.55 659.1L464.65 500L305.55 340.9C300.996 336.185 298.476 329.87 298.533 323.315C298.59 316.76 301.219 310.49 305.855 305.855C310.49 301.219 316.76 298.59 323.315 298.533C329.87 298.476 336.185 300.996 340.9 305.55L500 464.65L659.1 305.55C663.815 300.996 670.13 298.476 676.685 298.533C683.24 298.59 689.51 301.219 694.145 305.855C698.781 310.49 701.41 316.76 701.467 323.315C701.524 329.87 699.004 336.185 694.45 340.9L535.35 500L694.45 659.1C699.004 663.815 701.524 670.13 701.467 676.685C701.41 683.24 698.781 689.51 694.145 694.145C689.51 698.781 683.24 701.41 676.685 701.467C670.13 701.524 663.815 699.004 659.1 694.45L500 535.35L340.9 694.45C336.212 699.137 329.854 701.77 323.225 701.77C316.596 701.77 310.238 699.137 305.55 694.45Z" fill="white"/>
</g>
<defs>
<clipPath id="clip0_385_327">
<rect width="1000" height="1000" fill="white"/>
</clipPath>
</defs>
</svg>
