<svg width="98" height="98" viewBox="0 0 98 98" fill="none" xmlns="http://www.w3.org/2000/svg">
<path d="M27.5625 12.25C23.5014 12.25 19.6066 13.8633 16.7349 16.7349C13.8633 19.6066 12.25 23.5014 12.25 27.5625V58.1875C12.25 60.1984 12.6461 62.1895 13.4156 64.0473C14.1851 65.9051 15.313 67.5932 16.7349 69.0151C19.6066 71.8867 23.5014 73.5 27.5625 73.5H58.1875C60.1984 73.5 62.1895 73.1039 64.0473 72.3344C65.9051 71.5649 67.5932 70.437 69.0151 69.0151C70.437 67.5932 71.5649 65.9051 72.3344 64.0473C73.1039 62.1895 73.5 60.1984 73.5 58.1875V27.5625C73.5 25.5516 73.1039 23.5605 72.3344 21.7027C71.5649 19.8449 70.437 18.1568 69.0151 16.7349C67.5932 15.313 65.9051 14.1851 64.0473 13.4156C62.1895 12.6461 60.1984 12.25 58.1875 12.25H27.5625ZM60.3558 35.8558L41.9808 54.2308C41.6963 54.5159 41.3583 54.7422 40.9863 54.8966C40.6142 55.051 40.2153 55.1305 39.8125 55.1305C39.4097 55.1305 39.0108 55.051 38.6387 54.8966C38.2667 54.7422 37.9287 54.5159 37.6442 54.2308L28.4567 45.0433C28.172 44.7585 27.9461 44.4205 27.792 44.0485C27.6379 43.6764 27.5586 43.2777 27.5586 42.875C27.5586 42.4723 27.6379 42.0736 27.792 41.7015C27.9461 41.3295 28.172 40.9915 28.4567 40.7067C28.7415 40.422 29.0795 40.1961 29.4515 40.042C29.8236 39.8879 30.2223 39.8086 30.625 39.8086C31.0277 39.8086 31.4264 39.8879 31.7985 40.042C32.1705 40.1961 32.5085 40.422 32.7933 40.7067L39.8125 47.7321L56.0192 31.5192C56.5943 30.9442 57.3742 30.6211 58.1875 30.6211C59.0008 30.6211 59.7807 30.9442 60.3558 31.5192C60.9308 32.0943 61.2539 32.8742 61.2539 33.6875C61.2539 34.5008 60.9308 35.2807 60.3558 35.8558ZM30.625 79.625C33.418 83.3429 37.8647 85.75 42.875 85.75H58.1875C65.4975 85.75 72.5082 82.8461 77.6771 77.6771C82.8461 72.5082 85.75 65.4975 85.75 58.1875V36.75C85.75 31.7397 83.3429 27.293 79.625 24.5V58.1875C79.625 63.8731 77.3664 69.3258 73.3461 73.3461C69.3258 77.3664 63.8731 79.625 58.1875 79.625H30.625Z" fill="white"/>
</svg>
