<svg width="109" height="82" viewBox="0 0 109 82" fill="none" xmlns="http://www.w3.org/2000/svg">
<path d="M98.7812 6.8125C99.6846 6.8125 100.551 7.17137 101.19 7.81017C101.829 8.44896 102.188 9.31536 102.188 10.2188V71.5312C102.188 72.4346 101.829 73.301 101.19 73.9398C100.551 74.5786 99.6846 74.9375 98.7812 74.9375H10.2188C9.31536 74.9375 8.44896 74.5786 7.81017 73.9398C7.17137 73.301 6.8125 72.4346 6.8125 71.5312V10.2188C6.8125 9.31536 7.17137 8.44896 7.81017 7.81017C8.44896 7.17137 9.31536 6.8125 10.2188 6.8125H98.7812ZM10.2188 0C7.50857 0 4.90939 1.07662 2.993 2.993C1.07662 4.90939 0 7.50857 0 10.2188L0 71.5312C0 74.2414 1.07662 76.8406 2.993 78.757C4.90939 80.6734 7.50857 81.75 10.2188 81.75H98.7812C101.491 81.75 104.091 80.6734 106.007 78.757C107.923 76.8406 109 74.2414 109 71.5312V10.2188C109 7.50857 107.923 4.90939 106.007 2.993C104.091 1.07662 101.491 0 98.7812 0H10.2188Z" fill="white"/>
<path d="M47.6873 23.844C47.6873 22.9406 48.0461 22.0742 48.6849 21.4354C49.3237 20.7966 50.1901 20.4377 51.0935 20.4377H85.156C86.0594 20.4377 86.9258 20.7966 87.5646 21.4354C88.2034 22.0742 88.5623 22.9406 88.5623 23.844C88.5623 24.7474 88.2034 25.6138 87.5646 26.2526C86.9258 26.8914 86.0594 27.2502 85.156 27.2502H51.0935C50.1901 27.2502 49.3237 26.8914 48.6849 26.2526C48.0461 25.6138 47.6873 24.7474 47.6873 23.844ZM37.4958 18.0261C37.813 18.3425 38.0646 18.7184 38.2364 19.1322C38.4081 19.546 38.4965 19.9897 38.4965 20.4377C38.4965 20.8858 38.4081 21.3294 38.2364 21.7432C38.0646 22.1571 37.813 22.5329 37.4958 22.8494L27.277 33.0681C26.9606 33.3853 26.5847 33.637 26.1709 33.8087C25.7571 33.9804 25.3134 34.0688 24.8654 34.0688C24.4173 34.0688 23.9737 33.9804 23.5599 33.8087C23.1461 33.637 22.7702 33.3853 22.4538 33.0681L19.0475 29.6619C18.7308 29.3452 18.4796 28.9692 18.3082 28.5554C18.1368 28.1416 18.0486 27.6981 18.0486 27.2502C18.0486 26.3457 18.4079 25.4782 19.0475 24.8386C19.6871 24.199 20.5546 23.8397 21.4591 23.8397C22.3637 23.8397 23.2312 24.199 23.8708 24.8386L24.8654 25.84L32.6725 18.0261C32.9889 17.7089 33.3648 17.4572 33.7786 17.2855C34.1925 17.1138 34.6361 17.0254 35.0841 17.0254C35.5322 17.0254 35.9758 17.1138 36.3896 17.2855C36.8035 17.4572 37.1794 17.7089 37.4958 18.0261ZM47.6873 51.094C47.6873 50.1906 48.0461 49.3242 48.6849 48.6854C49.3237 48.0466 50.1901 47.6877 51.0935 47.6877H85.156C86.0594 47.6877 86.9258 48.0466 87.5646 48.6854C88.2034 49.3242 88.5623 50.1906 88.5623 51.094C88.5623 51.9974 88.2034 52.8638 87.5646 53.5026C86.9258 54.1414 86.0594 54.5002 85.156 54.5002H51.0935C50.1901 54.5002 49.3237 54.1414 48.6849 53.5026C48.0461 52.8638 47.6873 51.9974 47.6873 51.094ZM37.4958 45.2761C37.813 45.5925 38.0646 45.9684 38.2364 46.3822C38.4081 46.7961 38.4965 47.2397 38.4965 47.6877C38.4965 48.1358 38.4081 48.5794 38.2364 48.9932C38.0646 49.4071 37.813 49.7829 37.4958 50.0994L27.277 60.3181C26.9606 60.6353 26.5847 60.887 26.1709 61.0587C25.7571 61.2304 25.3134 61.3188 24.8654 61.3188C24.4173 61.3188 23.9737 61.2304 23.5599 61.0587C23.1461 60.887 22.7702 60.6353 22.4538 60.3181L19.0475 56.9119C18.7308 56.5952 18.4796 56.2192 18.3082 55.8054C18.1368 55.3916 18.0486 54.9481 18.0486 54.5002C18.0486 54.0523 18.1368 53.6089 18.3082 53.1951C18.4796 52.7813 18.7308 52.4053 19.0475 52.0886C19.3642 51.7719 19.7402 51.5207 20.154 51.3493C20.5678 51.1779 21.0113 51.0897 21.4591 51.0897C21.907 51.0897 22.3505 51.1779 22.7643 51.3493C23.1781 51.5207 23.5541 51.7719 23.8708 52.0886L24.8654 53.09L32.6725 45.2761C32.9889 44.9589 33.3648 44.7072 33.7786 44.5355C34.1925 44.3638 34.6361 44.2754 35.0841 44.2754C35.5322 44.2754 35.9758 44.3638 36.3896 44.5355C36.8035 44.7072 37.1794 44.9589 37.4958 45.2761Z" fill="white"/>
</svg>
