<svg width="91" height="91" viewBox="0 0 91 91" fill="none" xmlns="http://www.w3.org/2000/svg">
<path d="M18.2 18.2001C18.2 15.7866 19.1587 13.472 20.8653 11.7654C22.5719 10.0588 24.8865 9.1001 27.2999 9.1001H63.6999C66.1134 9.1001 68.428 10.0588 70.1346 11.7654C71.8412 13.472 72.7999 15.7866 72.7999 18.2001V63.1677L61.4477 74.6337L57.198 70.2976C56.5741 69.6427 55.8262 69.1185 54.9979 68.7552C54.1696 68.3919 53.2774 68.1969 52.373 68.1815C51.4687 68.1661 50.5703 68.3305 49.7301 68.6654C48.8899 69.0002 48.1246 69.4987 47.4787 70.1319C46.8329 70.7651 46.3193 71.5204 45.9679 72.3538C45.6165 73.1872 45.4342 74.0822 45.4317 74.9866C45.4292 75.8911 45.6065 76.7871 45.9533 77.6224C46.3002 78.4577 46.8095 79.2158 47.4519 79.8526L49.4584 81.9001H27.2999C24.8865 81.9001 22.5719 80.9413 20.8653 79.2347C19.1587 77.5282 18.2 75.2135 18.2 72.8001V18.2001ZM40.9499 43.2251C40.9499 43.8285 41.1896 44.4071 41.6163 44.8338C42.0429 45.2604 42.6216 45.5001 43.2249 45.5001H61.4249C62.0283 45.5001 62.607 45.2604 63.0336 44.8338C63.4603 44.4071 63.6999 43.8285 63.6999 43.2251C63.6999 42.6217 63.4603 42.0431 63.0336 41.6164C62.607 41.1898 62.0283 40.9501 61.4249 40.9501H43.2249C42.6216 40.9501 42.0429 41.1898 41.6163 41.6164C41.1896 42.0431 40.9499 42.6217 40.9499 43.2251ZM43.2249 22.7501C42.6216 22.7501 42.0429 22.9898 41.6163 23.4164C41.1896 23.8431 40.9499 24.4217 40.9499 25.0251C40.9499 25.6285 41.1896 26.2071 41.6163 26.6338C42.0429 27.0604 42.6216 27.3001 43.2249 27.3001H61.4249C62.0283 27.3001 62.607 27.0604 63.0336 26.6338C63.4603 26.2071 63.6999 25.6285 63.6999 25.0251C63.6999 24.4217 63.4603 23.8431 63.0336 23.4164C62.607 22.9898 62.0283 22.7501 61.4249 22.7501H43.2249ZM40.9499 61.4251C40.9499 62.0285 41.1896 62.6071 41.6163 63.0338C42.0429 63.4604 42.6216 63.7001 43.2249 63.7001H61.4249C62.0283 63.7001 62.607 63.4604 63.0336 63.0338C63.4603 62.6071 63.6999 62.0285 63.6999 61.4251C63.6999 60.8217 63.4603 60.2431 63.0336 59.8164C62.607 59.3898 62.0283 59.1501 61.4249 59.1501H43.2249C42.6216 59.1501 42.0429 59.3898 41.6163 59.8164C41.1896 60.2431 40.9499 60.8217 40.9499 61.4251ZM31.8499 47.7751C33.0567 47.7751 34.214 47.2957 35.0673 46.4424C35.9206 45.5891 36.3999 44.4318 36.3999 43.2251C36.3999 42.0184 35.9206 40.861 35.0673 40.0078C34.214 39.1545 33.0567 38.6751 31.8499 38.6751C30.6432 38.6751 29.4859 39.1545 28.6326 40.0078C27.7793 40.861 27.2999 42.0184 27.2999 43.2251C27.2999 44.4318 27.7793 45.5891 28.6326 46.4424C29.4859 47.2957 30.6432 47.7751 31.8499 47.7751ZM36.3999 25.0251C36.3999 23.8184 35.9206 22.661 35.0673 21.8078C34.214 20.9545 33.0567 20.4751 31.8499 20.4751C30.6432 20.4751 29.4859 20.9545 28.6326 21.8078C27.7793 22.661 27.2999 23.8184 27.2999 25.0251C27.2999 26.2318 27.7793 27.3891 28.6326 28.2424C29.4859 29.0957 30.6432 29.5751 31.8499 29.5751C33.0567 29.5751 34.214 29.0957 35.0673 28.2424C35.9206 27.3891 36.3999 26.2318 36.3999 25.0251ZM31.8499 65.9751C33.0567 65.9751 34.214 65.4957 35.0673 64.6424C35.9206 63.7891 36.3999 62.6318 36.3999 61.4251C36.3999 60.2183 35.9206 59.061 35.0673 58.2077C34.214 57.3545 33.0567 56.8751 31.8499 56.8751C30.6432 56.8751 29.4859 57.3545 28.6326 58.2077C27.7793 59.061 27.2999 60.2183 27.2999 61.4251C27.2999 62.6318 27.7793 63.7891 28.6326 64.6424C29.4859 65.4957 30.6432 65.9751 31.8499 65.9751ZM81.2402 67.5767C81.6531 67.1459 81.8803 66.5702 81.8728 65.9735C81.8652 65.3768 81.6235 64.807 81.1998 64.3868C80.776 63.9667 80.2042 63.7298 79.6075 63.7273C79.0107 63.7248 78.4369 63.9569 78.0097 64.3735L61.434 81.1175L53.9493 73.4826C53.7413 73.2643 53.492 73.0895 53.2159 72.9684C52.9398 72.8474 52.6424 72.7823 52.341 72.7772C52.0395 72.7721 51.7401 72.8269 51.46 72.9385C51.1799 73.0501 50.9248 73.2163 50.7095 73.4274C50.4943 73.6384 50.3231 73.8902 50.2059 74.168C50.0888 74.4458 50.028 74.7441 50.0272 75.0456C50.0264 75.3471 50.0855 75.6457 50.2011 75.9242C50.3167 76.2026 50.4865 76.4553 50.7006 76.6676L59.4775 85.622C59.731 85.8805 60.0333 86.0861 60.3669 86.2267C60.7005 86.3673 61.0587 86.4401 61.4208 86.441C61.7828 86.4418 62.1414 86.3706 62.4756 86.2316C62.8099 86.0926 63.1132 85.8884 63.3678 85.6311L81.2402 67.5767Z" fill="white"/>
</svg>
