<svg width="622" height="276" viewBox="0 0 622 276" fill="none" xmlns="http://www.w3.org/2000/svg">
<path d="M440.022 163.377C436.069 163.377 432.712 162.619 429.95 161.103C427.243 159.587 425.158 157.339 423.696 154.361C422.288 151.383 421.584 147.755 421.584 143.477C421.584 138.82 422.477 135.003 424.264 132.025C426.051 128.992 428.407 126.745 431.331 125.283C434.309 123.821 437.558 123.09 441.078 123.09C446.222 123.09 450.337 124.66 453.424 127.801C456.565 130.887 458.162 135.49 458.216 141.609H432.549L432.468 137.791H445.464C445.464 135.571 445.301 133.622 444.977 131.943C444.652 130.265 444.083 128.965 443.271 128.045C442.513 127.124 441.403 126.664 439.941 126.664C437.45 126.664 435.744 127.747 434.824 129.913C433.903 132.079 433.443 135.571 433.443 140.391C433.443 143.964 433.849 146.78 434.661 148.838C435.473 150.896 436.692 152.385 438.316 153.305C439.941 154.172 441.944 154.605 444.327 154.605C446.439 154.605 448.226 154.388 449.688 153.955C451.204 153.522 452.503 152.899 453.586 152.087C454.724 151.221 455.725 150.246 456.592 149.163L458.704 150.625C457.837 152.195 456.917 153.738 455.942 155.255C455.021 156.771 453.884 158.152 452.53 159.397C451.231 160.588 449.579 161.563 447.576 162.321C445.572 163.025 443.054 163.377 440.022 163.377Z" fill="#003585"/>
<path d="M387.405 163.297C384.318 163.297 381.746 162.458 379.689 160.779C377.631 159.047 376.088 156.772 375.059 153.956C374.03 151.087 373.516 147.919 373.516 144.453C373.516 139.471 374.328 135.41 375.952 132.27C377.631 129.129 379.851 126.828 382.613 125.365C385.429 123.849 388.542 123.091 391.954 123.091C393.199 123.091 394.472 123.227 395.771 123.497C397.125 123.768 398.479 124.228 399.832 124.878H400.076V115.619C400.076 113.832 399.859 112.694 399.426 112.207C399.047 111.666 398.072 111.395 396.502 111.395C396.123 111.395 395.636 111.422 395.04 111.476C394.444 111.476 394.147 111.476 394.147 111.476V107.983L407.143 105.141H411.691V153.225C411.691 155.283 412.016 156.637 412.666 157.287C413.316 157.882 414.399 158.18 415.915 158.18H417.62V161.51L403.081 162.891H400.238V157.693H399.914C398.397 159.047 396.61 160.319 394.553 161.51C392.495 162.702 390.112 163.297 387.405 163.297ZM392.603 156.556C394.174 156.556 395.473 156.312 396.502 155.825C397.531 155.283 398.722 154.552 400.076 153.632V133.975C399.697 132.513 398.939 131.132 397.802 129.833C396.665 128.533 394.986 127.883 392.766 127.883C390.708 127.883 389.084 129.021 387.892 131.295C386.701 133.569 386.105 137.143 386.105 142.016C386.105 147.107 386.647 150.816 387.73 153.144C388.813 155.418 390.437 156.556 392.603 156.556Z" fill="#003585"/>
<path d="M340.919 163.378C337.941 163.378 335.477 162.674 333.527 161.266C331.632 159.804 330.685 157.422 330.685 154.119C330.685 151.844 331.172 149.949 332.147 148.433C333.121 146.863 334.394 145.563 335.964 144.534C337.534 143.505 339.267 142.666 341.162 142.016C343.058 141.312 344.953 140.717 346.848 140.229C348.743 139.742 350.449 139.282 351.965 138.849V134.95C351.965 131.484 351.613 129.237 350.909 128.208C350.205 127.125 348.879 126.584 346.929 126.584C345.305 126.584 344.195 126.963 343.599 127.721C343.058 128.479 342.787 130.022 342.787 132.351C342.787 134.192 342.245 135.518 341.162 136.331C340.08 137.143 338.834 137.549 337.426 137.549C336.235 137.549 335.098 137.116 334.015 136.249C332.986 135.329 332.472 133.948 332.472 132.107C332.472 130.482 333.094 128.993 334.34 127.64C335.585 126.232 337.345 125.122 339.619 124.309C341.948 123.443 344.682 123.01 347.823 123.01C352.913 123.01 356.812 123.984 359.519 125.934C362.227 127.883 363.58 131.105 363.58 135.6V153.225C363.58 154.85 363.77 155.906 364.149 156.393C364.582 156.88 365.232 157.124 366.098 157.124C366.748 157.124 367.398 156.907 368.048 156.474C368.752 156.041 369.401 155.527 369.997 154.931L371.784 156.718C370.43 158.721 368.914 160.319 367.236 161.51C365.611 162.701 363.283 163.297 360.25 163.297C357.326 163.297 355.35 162.837 354.321 161.916C353.346 160.996 352.696 159.398 352.371 157.124L351.965 155.499V142.016C349.853 142.666 348.067 143.37 346.605 144.128C345.197 144.832 344.114 145.78 343.356 146.971C342.652 148.162 342.3 149.787 342.3 151.844C342.3 153.848 342.597 155.31 343.193 156.231C343.843 157.151 344.791 157.611 346.036 157.611C347.227 157.611 348.31 157.341 349.285 156.799C350.26 156.203 351.478 155.148 352.94 153.631L353.427 158.18H352.209C350.909 159.263 349.745 160.211 348.716 161.023C347.742 161.781 346.659 162.349 345.467 162.728C344.33 163.162 342.814 163.378 340.919 163.378Z" fill="#003585"/>
<path d="M296.425 163.297C293.338 163.297 290.766 162.458 288.708 160.779C286.651 159.047 285.107 156.772 284.078 153.956C283.05 151.087 282.535 147.919 282.535 144.453C282.535 139.471 283.347 135.41 284.972 132.27C286.651 129.129 288.871 126.828 291.632 125.365C294.448 123.849 297.562 123.091 300.973 123.091C302.219 123.091 303.491 123.227 304.791 123.497C306.144 123.768 307.498 124.228 308.852 124.878H309.096V115.619C309.096 113.832 308.879 112.694 308.446 112.207C308.067 111.666 307.092 111.395 305.522 111.395C305.143 111.395 304.655 111.422 304.06 111.476C303.464 111.476 303.166 111.476 303.166 111.476V107.983L316.162 105.141H320.711V153.225C320.711 155.283 321.035 156.637 321.685 157.287C322.335 157.882 323.418 158.18 324.934 158.18H326.64V161.51L312.101 162.891H309.258V157.693H308.933C307.417 159.047 305.63 160.319 303.572 161.51C301.515 162.702 299.132 163.297 296.425 163.297ZM301.623 156.556C303.193 156.556 304.493 156.312 305.522 155.825C306.55 155.283 307.742 154.552 309.096 153.632V133.975C308.716 132.513 307.958 131.132 306.821 129.833C305.684 128.533 304.005 127.883 301.785 127.883C299.728 127.883 298.103 129.021 296.912 131.295C295.721 133.569 295.125 137.143 295.125 142.016C295.125 147.107 295.666 150.816 296.749 153.144C297.832 155.418 299.457 156.556 301.623 156.556Z" fill="#003585"/>
<path d="M278.71 162.485H254.667V159.236C256.454 159.236 257.781 159.101 258.647 158.83C259.514 158.505 260.082 157.937 260.353 157.124C260.678 156.258 260.84 155.067 260.84 153.55V132.838C260.84 130.997 260.461 129.887 259.703 129.508C258.945 129.075 257.943 128.858 256.698 128.858C256.156 128.858 255.669 128.885 255.236 128.939C254.803 128.994 254.586 129.021 254.586 129.021V125.609L266.77 123.335H272.455V153.307C272.455 154.877 272.591 156.095 272.861 156.962C273.186 157.828 273.782 158.424 274.648 158.749C275.569 159.074 276.923 159.236 278.71 159.236V162.485ZM266.363 118.218C264.36 118.218 262.763 117.649 261.571 116.512C260.434 115.321 259.866 113.778 259.866 111.882C259.866 109.987 260.434 108.471 261.571 107.334C262.708 106.143 264.306 105.547 266.363 105.547C268.529 105.547 270.154 106.115 271.237 107.253C272.374 108.39 272.943 109.906 272.943 111.801C272.943 113.751 272.374 115.321 271.237 116.512C270.154 117.649 268.529 118.218 266.363 118.218Z" fill="#003585"/>
<path d="M235.069 163.052H227.922L215.657 134.055C214.899 132.16 214.168 130.725 213.464 129.75C212.814 128.775 212.083 128.126 211.271 127.801C210.458 127.476 209.511 127.313 208.428 127.313V124.064H231.252V127.313C229.573 127.313 228.382 127.53 227.678 127.963C226.974 128.342 226.622 128.884 226.622 129.588C226.622 130.075 226.703 130.617 226.866 131.212C227.028 131.754 227.218 132.295 227.434 132.837L233.282 147.051L235.069 152.168H235.719L237.669 146.888L243.842 132.512C243.842 132.512 243.923 132.241 244.085 131.7C244.248 131.158 244.329 130.454 244.329 129.588C244.329 128.667 243.977 128.072 243.273 127.801C242.569 127.476 241.432 127.313 239.862 127.313V124.064H255.457V127.313C253.832 127.313 252.56 127.72 251.639 128.532C250.719 129.344 249.744 130.887 248.715 133.162L235.069 163.052Z" fill="#003585"/>
<path d="M208.907 162.485H184.864V159.236C186.651 159.236 187.978 159.101 188.844 158.83C189.711 158.505 190.279 157.937 190.55 157.124C190.875 156.258 191.037 155.067 191.037 153.55V132.838C191.037 130.997 190.658 129.887 189.9 129.508C189.142 129.075 188.14 128.858 186.895 128.858C186.354 128.858 185.866 128.885 185.433 128.939C185 128.994 184.783 129.021 184.783 129.021V125.609L196.967 123.335H202.653V153.307C202.653 154.877 202.788 156.095 203.059 156.962C203.384 157.828 203.979 158.424 204.846 158.749C205.766 159.074 207.12 159.236 208.907 159.236V162.485ZM196.561 118.218C194.557 118.218 192.96 117.649 191.769 116.512C190.631 115.321 190.063 113.778 190.063 111.882C190.063 109.987 190.631 108.471 191.769 107.334C192.906 106.143 194.503 105.547 196.561 105.547C198.727 105.547 200.351 106.115 201.434 107.253C202.571 108.39 203.14 109.906 203.14 111.801C203.14 113.751 202.571 115.321 201.434 116.512C200.351 117.649 198.727 118.218 196.561 118.218Z" fill="#003585"/>
<path d="M181.385 153.387L183.416 155.661C182.333 157.123 181.196 158.477 180.004 159.723C178.813 160.914 177.351 161.861 175.618 162.565C173.885 163.269 171.584 163.621 168.714 163.621C165.573 163.621 163.191 162.755 161.566 161.022C159.996 159.289 159.211 156.095 159.211 151.438V129.426H154.094V126.014C156.368 124.607 158.507 122.874 160.51 120.816C162.568 118.704 164.409 115.943 166.034 112.531H170.826V124.471H180.979V129.426H170.826V148.595C170.826 151.573 171.124 153.577 171.719 154.605C172.315 155.58 173.371 156.067 174.887 156.067C176.458 156.067 177.676 155.824 178.542 155.336C179.463 154.849 180.41 154.199 181.385 153.387Z" fill="#003585"/>
<path d="M111.42 162.483H92.9004V158.991C94.3083 158.991 95.4454 158.774 96.3118 158.341C97.2324 157.908 98.0446 157.123 98.7485 155.985C99.5066 154.848 100.292 153.224 101.104 151.112L118.73 108.713H127.258L144.803 151.274C145.886 153.874 147.023 155.823 148.214 157.123C149.46 158.368 151.003 158.991 152.844 158.991V162.483H126.771V158.991C127.475 158.991 128.179 158.964 128.883 158.91C129.641 158.801 130.264 158.558 130.751 158.179C131.292 157.799 131.563 157.204 131.563 156.392C131.563 155.796 131.401 154.902 131.076 153.711C130.751 152.52 130.372 151.356 129.939 150.219L127.664 144.289L127.015 142.177L119.38 120.897H119.055L110.445 142.177L109.795 144.289L107.033 151.274C106.817 151.978 106.573 152.764 106.302 153.63C106.032 154.496 105.896 155.282 105.896 155.985C105.896 157.285 106.302 158.124 107.115 158.503C107.981 158.828 109.416 158.991 111.42 158.991V162.483ZM129.208 145.345H108.252L109.714 141.121H127.746L129.208 145.345Z" fill="#003585"/>
<path d="M291.482 61.3154C285.093 61.3154 280.219 59.6909 276.862 56.442C273.505 53.193 271.826 48.0488 271.826 41.0093C271.826 37.2189 272.53 33.8345 273.938 30.8563C275.346 27.8239 277.512 25.4413 280.436 23.7086C283.414 21.9758 287.178 21.1094 291.726 21.1094C298.224 21.1094 303.07 22.8151 306.265 26.2265C309.514 29.6379 311.139 34.2677 311.139 40.1159C311.139 44.7186 310.381 48.6173 308.864 51.8122C307.348 54.9528 305.128 57.3354 302.204 58.9599C299.334 60.5302 295.76 61.3154 291.482 61.3154ZM291.726 57.3354C293.513 57.3354 294.921 56.7398 295.95 55.5485C296.979 54.3031 297.71 52.462 298.143 50.0252C298.576 47.5885 298.793 44.502 298.793 40.7657C298.793 35.6756 298.17 31.7768 296.924 29.0694C295.733 26.3619 293.784 25.0081 291.076 25.0081C288.477 25.0081 286.663 26.389 285.634 29.1506C284.66 31.8581 284.172 35.5402 284.172 40.1971C284.172 45.9911 284.768 50.296 285.959 53.1118C287.15 55.9275 289.073 57.3354 291.726 57.3354Z" fill="#003585"/>
<path d="M260.662 60.5027H235.157V57.2537C236.944 57.2537 238.244 57.1184 239.056 56.8476C239.922 56.5227 240.491 55.9541 240.762 55.1419C241.032 54.3297 241.168 53.1654 241.168 51.6493V31.7493C241.168 30.2873 240.951 29.1772 240.518 28.4191C240.085 27.6069 239.164 27.2007 237.756 27.2007C236.944 27.2007 236.321 27.2278 235.888 27.282C235.455 27.3361 235.238 27.3632 235.238 27.3632V23.8705L247.991 21.3526H252.62V29.7999H252.945C254.407 27.9047 255.599 26.3073 256.519 25.0077C257.44 23.6539 258.414 22.6251 259.443 21.9211C260.526 21.2172 261.907 20.8652 263.586 20.8652C265.698 20.8652 267.268 21.4609 268.297 22.6522C269.326 23.8435 269.84 25.4679 269.84 27.5256C269.84 29.8541 269.326 31.5327 268.297 32.5615C267.268 33.5904 266.131 34.1048 264.885 34.1048C263.694 34.1048 262.665 33.8341 261.799 33.2926C260.987 32.6969 260.283 32.1283 259.687 31.5868C259.091 30.9912 258.577 30.6934 258.144 30.6934C257.277 30.6934 256.384 31.0454 255.463 31.7493C254.597 32.3991 253.703 33.2655 252.783 34.3485V51.0807C252.783 52.8135 253.027 54.1401 253.514 55.0607C254.055 55.9271 254.895 56.5227 256.032 56.8476C257.223 57.1184 258.766 57.2537 260.662 57.2537V60.5027Z" fill="#003585"/>
<path d="M231.516 51.4047L233.547 53.6789C232.464 55.141 231.326 56.4947 230.135 57.7402C228.944 58.9314 227.482 59.8791 225.749 60.583C224.016 61.2869 221.715 61.6389 218.845 61.6389C215.704 61.6389 213.322 60.7725 211.697 59.0397C210.127 57.307 209.342 54.1121 209.342 49.4553V27.4435H204.225V24.0321C206.499 22.6242 208.638 20.8914 210.641 18.8337C212.699 16.7219 214.54 13.9602 216.165 10.5488H220.957V22.4888H231.11V27.4435H220.957V46.6124C220.957 49.5907 221.255 51.5942 221.85 52.623C222.446 53.5977 223.502 54.0851 225.018 54.0851C226.588 54.0851 227.807 53.8414 228.673 53.354C229.594 52.8667 230.541 52.2169 231.516 51.4047Z" fill="#003585"/>
<path d="M169.994 61.4779L169.669 46.1265H173.243C174.001 49.9169 175.138 52.7598 176.654 54.655C178.17 56.5503 180.391 57.4979 183.315 57.4979C185.21 57.4979 186.753 57.1188 187.944 56.3607C189.19 55.6026 189.813 54.4655 189.813 52.9493C189.813 52.0829 189.569 51.2977 189.082 50.5938C188.594 49.8357 187.674 49.0505 186.32 48.2383C185.02 47.4261 183.098 46.4243 180.553 45.233C178.225 44.0959 176.248 42.9858 174.624 41.9028C173.053 40.8198 171.835 39.5202 170.969 38.004C170.156 36.4878 169.75 34.5385 169.75 32.1559C169.75 28.7445 170.969 26.0641 173.405 24.1147C175.842 22.1111 179.253 21.1094 183.64 21.1094C186.022 21.1094 187.971 21.4613 189.488 22.1653C191.004 22.8692 192.114 23.4378 192.818 23.871H193.143L194.361 21.8404H197.691L197.935 35.08H194.361C193.278 31.1812 191.951 28.5279 190.381 27.12C188.811 25.6579 186.916 24.9269 184.695 24.9269C182.8 24.9269 181.419 25.3601 180.553 26.2265C179.687 27.0387 179.253 28.0405 179.253 29.2318C179.253 30.9646 180.039 32.2642 181.609 33.1306C183.179 33.9428 185.372 35.0529 188.188 36.4608C190.517 37.5438 192.574 38.6538 194.361 39.791C196.202 40.874 197.637 42.2006 198.666 43.771C199.695 45.2871 200.209 47.2636 200.209 49.7003C200.209 52.7327 199.451 55.1153 197.935 56.8481C196.419 58.5809 194.442 59.7992 192.006 60.5032C189.623 61.153 187.024 61.4779 184.208 61.4779C181.717 61.4779 179.795 61.2342 178.441 60.7468C177.087 60.2595 175.842 59.7451 174.705 59.2036H174.38L172.593 61.4779H169.994Z" fill="#003585"/>
<path d="M165.519 60.5027H141.477V57.2537C143.264 57.2537 144.59 57.1184 145.457 56.8476C146.323 56.5227 146.892 55.9541 147.162 55.1419C147.487 54.2755 147.65 53.0842 147.65 51.568V30.8558C147.65 29.0147 147.271 27.9047 146.513 27.5256C145.755 27.0924 144.753 26.8758 143.507 26.8758C142.966 26.8758 142.478 26.9029 142.045 26.9571C141.612 27.0112 141.396 27.0383 141.396 27.0383V23.6269L153.579 21.3526H159.265V51.3244C159.265 52.8947 159.4 54.1131 159.671 54.9795C159.996 55.8458 160.592 56.4415 161.458 56.7664C162.378 57.0913 163.732 57.2537 165.519 57.2537V60.5027ZM153.173 16.2355C151.17 16.2355 149.572 15.6669 148.381 14.5297C147.244 13.3384 146.675 11.7952 146.675 9.89995C146.675 8.00472 147.244 6.48853 148.381 5.35139C149.518 4.1601 151.115 3.56445 153.173 3.56445C155.339 3.56445 156.964 4.13302 158.046 5.27017C159.184 6.40731 159.752 7.92349 159.752 9.81873C159.752 11.7681 159.184 13.3384 158.046 14.5297C156.964 15.6669 155.339 16.2355 153.173 16.2355Z" fill="#003585"/>
<path d="M113.025 79.5914C109.289 79.5914 106.365 79.2123 104.253 78.4542C102.141 77.7503 100.652 76.7485 99.7859 75.4489C98.9195 74.1493 98.4863 72.6873 98.4863 71.0628C98.4863 69.4925 98.9737 68.1117 99.9484 66.9204C100.977 65.7291 102.52 64.3483 104.578 62.7779V61.6408L108.233 62.7779C107.854 63.4277 107.448 64.2941 107.015 65.3771C106.636 66.5142 106.446 67.6514 106.446 68.7885C106.446 70.5755 107.367 71.9292 109.208 72.8497C111.049 73.7703 114.136 74.2305 118.468 74.2305C121.554 74.2305 123.882 73.9598 125.453 73.4183C127.077 72.8768 128.187 72.1729 128.783 71.3065C129.379 70.4401 129.676 69.4925 129.676 68.4636C129.676 67.2723 129.352 66.3518 128.702 65.702C128.106 65.0522 127.267 64.5649 126.184 64.24C125.101 63.9692 123.855 63.7797 122.447 63.6714C121.094 63.5631 119.632 63.5089 118.061 63.5089C115.733 63.4548 113.865 63.4277 112.457 63.4277C111.103 63.4277 110.047 63.4006 109.289 63.3465C108.585 63.3465 108.044 63.3465 107.665 63.3465L104.903 62.6155C104.524 62.5072 103.874 62.2635 102.954 61.8845C102.033 61.5596 101.167 60.9368 100.354 60.0163C99.5422 59.0957 99.1361 57.7691 99.1361 56.0363C99.1361 54.3035 99.461 52.8686 100.111 51.7314C100.761 50.5943 101.6 49.5654 102.629 48.6449C103.712 47.7243 104.876 46.7497 106.121 45.7208V44.2588L110.183 45.9645C109.695 46.6684 109.289 47.3182 108.964 47.9139C108.639 48.4554 108.396 48.9698 108.233 49.4571C108.125 49.9445 108.071 50.486 108.071 51.0816C108.071 51.6773 108.287 52.1646 108.721 52.5437C109.154 52.9227 110.101 53.1935 111.563 53.3559C113.08 53.5183 115.462 53.6266 118.711 53.6808C123.26 53.7349 126.969 54.0598 129.839 54.6555C132.709 55.2511 134.821 56.28 136.174 57.742C137.528 59.2041 138.205 61.3159 138.205 64.0775C138.205 67.0557 137.393 69.5195 135.768 71.4689C134.144 73.4725 132.032 75.0699 129.433 76.2612C126.888 77.4524 124.153 78.2918 121.229 78.7791C118.305 79.3206 115.571 79.5914 113.025 79.5914ZM117.33 48.4012C115.76 48.4012 114.244 48.2658 112.782 47.9951C111.374 47.7243 109.993 47.2641 108.639 46.6143L106.69 45.5584C105.878 45.0169 104.957 44.3941 103.928 43.6902C102.9 42.9321 102.006 41.8762 101.248 40.5225C100.49 39.1146 100.111 37.1652 100.111 34.6743C100.111 31.5336 100.923 28.9886 102.548 27.0392C104.226 25.0898 106.365 23.6549 108.964 22.7343C111.563 21.8138 114.244 21.3535 117.005 21.3535C118.468 21.3535 120.119 21.4618 121.96 21.6784C123.855 21.895 125.696 22.2199 127.483 22.6531C129.27 23.0322 130.705 23.5466 131.788 24.1964V28.0139C132.276 28.772 132.763 29.7467 133.25 30.938C133.738 32.0751 133.981 33.6996 133.981 35.8114C133.981 38.9521 133.169 41.443 131.545 43.2841C129.92 45.1252 127.835 46.4518 125.29 47.2641C122.799 48.0222 120.146 48.4012 117.33 48.4012ZM117.249 44.5024C118.874 44.5024 120.227 43.8527 121.31 42.5531C122.393 41.2535 122.935 38.7897 122.935 35.1616C122.935 31.6961 122.393 29.2052 121.31 27.689C120.227 26.1728 118.711 25.4147 116.762 25.4147C115.083 25.4147 113.675 26.0645 112.538 27.3641C111.455 28.6637 110.914 30.9921 110.914 34.3494C110.914 37.9774 111.509 40.5766 112.701 42.1469C113.892 43.7173 115.408 44.5024 117.249 44.5024ZM139.342 22.6531V27.689H130.489L127.89 22.6531H139.342Z" fill="#003585"/>
<path d="M76.1782 61.3966C72.2252 61.3966 68.868 60.6385 66.1063 59.1224C63.3989 57.6062 61.3141 55.359 59.8521 52.3807C58.4442 49.4025 57.7402 45.7745 57.7402 41.4967C57.7402 36.8398 58.6337 33.0223 60.4206 30.044C62.2076 27.0117 64.5631 24.7645 67.4872 23.3024C70.4654 21.8404 73.7144 21.1094 77.2341 21.1094C82.3783 21.1094 86.4937 22.6797 89.5802 25.8204C92.7209 28.9069 94.3183 33.5096 94.3724 39.6285H68.7055L68.6243 35.811H81.6202C81.6202 33.5908 81.4577 31.6415 81.1328 29.9628C80.8079 28.2842 80.2394 26.9846 79.4271 26.0641C78.669 25.1435 77.559 24.6832 76.0969 24.6832C73.6061 24.6832 71.9003 25.7662 70.9798 27.9322C70.0593 30.0982 69.599 33.5908 69.599 38.4102C69.599 41.984 70.0051 44.7998 70.8174 46.8575C71.6296 48.9152 72.848 50.4043 74.4724 51.3248C76.0969 52.1912 78.1005 52.6244 80.483 52.6244C82.5949 52.6244 84.3818 52.4078 85.8439 51.9746C87.36 51.5414 88.6596 50.9187 89.7426 50.1065C90.8798 49.2401 91.8815 48.2654 92.7479 47.1824L94.8598 48.6444C93.9934 50.2148 93.0728 51.758 92.0981 53.2742C91.1776 54.7904 90.0404 56.1712 88.6867 57.4167C87.3871 58.6079 85.7356 59.5826 83.732 60.3407C81.7285 61.0447 79.2105 61.3966 76.1782 61.3966Z" fill="#003585"/>
<path d="M27.6975 60.5031H0V57.0104C2.05768 57.0104 3.62802 56.848 4.71101 56.5231C5.794 56.1982 6.52502 55.4942 6.90407 54.4112C7.33726 53.3282 7.55386 51.6767 7.55386 49.4566V16.9668C7.55386 15.3423 7.36434 14.0698 6.98529 13.1493C6.66039 12.2287 5.95645 11.5789 4.87346 11.1999C3.79047 10.8208 2.16598 10.6313 0 10.6313V7.13867H26.4791C30.2696 7.13867 33.7622 7.57187 36.9571 8.43826C40.206 9.2505 42.8052 10.6584 44.7546 12.6619C46.7581 14.6113 47.7599 17.3188 47.7599 20.7844C47.7599 23.7626 47.1643 26.1722 45.973 28.0133C44.7817 29.8544 43.2113 31.2894 41.262 32.3182C39.3126 33.3471 37.2007 34.1322 34.9265 34.6737V35.0798C35.7929 35.6213 36.7134 36.5148 37.6881 37.7602C38.6628 38.9515 39.9894 40.7385 41.6681 43.121C43.3467 45.5036 45.6481 48.7526 48.5721 52.868C49.8176 54.6549 51.0901 55.792 52.3897 56.2794C53.7434 56.7667 55.3408 57.0104 57.1819 57.0104V60.5031H38.744C36.9029 57.2541 35.3867 54.5737 34.1954 52.4618C33.0042 50.35 31.9753 48.6172 31.1089 47.2635C30.2967 45.8556 29.5386 44.5831 28.8346 43.4459C28.1848 42.3088 27.4538 41.0904 26.6416 39.7909C25.9376 38.5454 25.2066 37.7602 24.4485 37.4353C23.7446 37.1104 22.6887 36.948 21.2808 36.948H19.6563V49.5378C19.6563 51.7038 19.8458 53.3282 20.2249 54.4112C20.6039 55.4942 21.362 56.1982 22.4991 56.5231C23.6363 56.848 25.3691 57.0104 27.6975 57.0104V60.5031ZM19.6563 32.968L22.7428 33.0492C25.4503 32.8868 27.7246 32.4536 29.5657 31.7496C31.4067 31.0457 32.7876 29.8815 33.7081 28.257C34.6828 26.5784 35.1701 24.277 35.1701 21.3529C35.1701 18.2664 34.3308 15.8026 32.6522 13.9615C31.0277 12.0663 28.3202 11.1187 24.5297 11.1187C23.6634 11.1187 22.824 11.1457 22.0118 11.1999C21.1996 11.1999 20.4144 11.254 19.6563 11.3623V32.968Z" fill="#003585"/>
<path d="M590.984 258.14C588.006 258.14 585.542 257.436 583.593 256.028C581.698 254.566 580.75 252.184 580.75 248.88C580.75 246.606 581.237 244.711 582.212 243.195C583.187 241.624 584.459 240.325 586.03 239.296C587.6 238.267 589.333 237.428 591.228 236.778C593.123 236.074 595.018 235.478 596.914 234.991C598.809 234.504 600.515 234.043 602.031 233.61V229.711C602.031 226.246 601.679 223.999 600.975 222.97C600.271 221.887 598.944 221.345 596.995 221.345C595.37 221.345 594.26 221.724 593.665 222.482C593.123 223.241 592.852 224.784 592.852 227.112C592.852 228.953 592.311 230.28 591.228 231.092C590.145 231.905 588.9 232.311 587.492 232.311C586.3 232.311 585.163 231.877 584.08 231.011C583.051 230.091 582.537 228.71 582.537 226.869C582.537 225.244 583.16 223.755 584.405 222.401C585.651 220.993 587.41 219.883 589.685 219.071C592.013 218.205 594.748 217.771 597.888 217.771C602.978 217.771 606.877 218.746 609.585 220.696C612.292 222.645 613.646 225.867 613.646 230.361V247.987C613.646 249.611 613.835 250.667 614.214 251.155C614.648 251.642 615.297 251.886 616.164 251.886C616.814 251.886 617.463 251.669 618.113 251.236C618.817 250.803 619.467 250.288 620.063 249.693L621.85 251.48C620.496 253.483 618.98 255.081 617.301 256.272C615.676 257.463 613.348 258.059 610.316 258.059C607.392 258.059 605.415 257.598 604.386 256.678C603.412 255.757 602.762 254.16 602.437 251.886L602.031 250.261V236.778C599.919 237.428 598.132 238.132 596.67 238.89C595.262 239.594 594.179 240.541 593.421 241.733C592.717 242.924 592.365 244.548 592.365 246.606C592.365 248.61 592.663 250.072 593.259 250.992C593.908 251.913 594.856 252.373 596.101 252.373C597.293 252.373 598.376 252.102 599.35 251.561C600.325 250.965 601.543 249.909 603.005 248.393L603.493 252.942H602.274C600.975 254.025 599.811 254.972 598.782 255.784C597.807 256.543 596.724 257.111 595.533 257.49C594.396 257.923 592.879 258.14 590.984 258.14Z" fill="#003585"/>
<path d="M576.843 257.247H552.801V253.998C554.588 253.998 555.915 253.862 556.781 253.592C557.647 253.267 558.216 252.698 558.487 251.886C558.812 251.02 558.974 249.828 558.974 248.312V227.6C558.974 225.759 558.595 224.649 557.837 224.27C557.079 223.837 556.077 223.62 554.832 223.62C554.29 223.62 553.803 223.647 553.37 223.701C552.936 223.755 552.72 223.782 552.72 223.782V220.371L564.903 218.097H570.589V248.069C570.589 249.639 570.724 250.857 570.995 251.724C571.32 252.59 571.916 253.186 572.782 253.511C573.703 253.835 575.056 253.998 576.843 253.998V257.247ZM564.497 212.98C562.494 212.98 560.896 212.411 559.705 211.274C558.568 210.083 557.999 208.539 557.999 206.644C557.999 204.749 558.568 203.233 559.705 202.096C560.842 200.904 562.44 200.309 564.497 200.309C566.663 200.309 568.288 200.877 569.371 202.014C570.508 203.151 571.076 204.668 571.076 206.563C571.076 208.512 570.508 210.083 569.371 211.274C568.288 212.411 566.663 212.98 564.497 212.98Z" fill="#003585"/>
<path d="M547.917 243.52L550.029 244.819C548.946 247.202 547.674 249.422 546.212 251.48C544.804 253.483 542.963 255.108 540.688 256.353C538.468 257.544 535.544 258.14 531.916 258.14C528.18 258.14 524.931 257.409 522.169 255.947C519.462 254.485 517.35 252.346 515.834 249.53C514.372 246.66 513.641 243.113 513.641 238.89C513.641 234.774 514.372 231.146 515.834 228.006C517.35 224.811 519.624 222.32 522.657 220.533C525.743 218.692 529.615 217.771 534.272 217.771C538.928 217.771 542.556 218.638 545.156 220.371C547.809 222.049 549.136 224.161 549.136 226.706C549.136 228.493 548.54 229.82 547.349 230.686C546.212 231.553 544.858 231.986 543.288 231.986C541.771 231.986 540.634 231.634 539.876 230.93C539.172 230.226 538.631 229.359 538.252 228.331C537.873 227.302 537.493 226.3 537.114 225.325C536.735 224.297 536.167 223.43 535.409 222.726C534.705 222.022 533.622 221.67 532.16 221.67C529.669 221.67 527.882 222.807 526.799 225.082C525.77 227.356 525.256 230.659 525.256 234.991C525.256 239.648 525.987 243.222 527.449 245.713C528.965 248.204 531.889 249.449 536.221 249.449C538.983 249.449 541.23 248.962 542.963 247.987C544.75 246.958 546.401 245.469 547.917 243.52Z" fill="#003585"/>
<path d="M509.621 257.247H487.04V253.998C488.665 253.998 489.856 253.836 490.614 253.511C491.372 253.132 491.86 252.536 492.076 251.724C492.293 250.858 492.401 249.666 492.401 248.15V235.479C492.401 232.934 492.158 230.958 491.67 229.55C491.183 228.088 490.452 227.086 489.477 226.545C488.503 225.949 487.284 225.651 485.822 225.651C484.577 225.651 483.467 225.841 482.492 226.22C481.517 226.599 480.597 227.113 479.73 227.763C478.864 228.413 477.97 229.117 477.05 229.875L476.563 224.758H478.025C480.082 222.7 482.059 221.048 483.954 219.803C485.903 218.503 488.096 217.854 490.533 217.854C494.811 217.854 498.114 219.153 500.443 221.752C502.825 224.351 504.016 228.331 504.016 233.692V248.15C504.016 249.612 504.152 250.776 504.422 251.643C504.693 252.509 505.235 253.132 506.047 253.511C506.859 253.836 508.05 253.998 509.621 253.998V257.247ZM483.71 257.247H460.643V253.998C462.43 253.998 463.702 253.836 464.46 253.511C465.272 253.132 465.76 252.509 465.922 251.643C466.139 250.776 466.247 249.612 466.247 248.15V227.276C466.247 225.759 465.976 224.785 465.435 224.351C464.893 223.864 464.054 223.62 462.917 223.62C462.213 223.62 461.671 223.648 461.292 223.702C460.913 223.756 460.724 223.783 460.724 223.783V220.453L473.232 218.097H477.7V225.895L477.943 228.007V248.15C477.943 249.612 478.052 250.776 478.268 251.643C478.485 252.509 478.999 253.132 479.812 253.511C480.624 253.836 481.923 253.998 483.71 253.998V257.247Z" fill="#003585"/>
<path d="M437.847 258.14C433.894 258.14 430.537 257.382 427.775 255.866C425.068 254.35 422.983 252.103 421.521 249.124C420.113 246.146 419.409 242.518 419.409 238.24C419.409 233.584 420.303 229.766 422.09 226.788C423.877 223.755 426.232 221.508 429.156 220.046C432.134 218.584 435.383 217.853 438.903 217.853C444.047 217.853 448.163 219.423 451.249 222.564C454.39 225.651 455.987 230.253 456.041 236.372H430.374L430.293 232.555H443.289C443.289 230.335 443.127 228.385 442.802 226.707C442.477 225.028 441.908 223.728 441.096 222.808C440.338 221.887 439.228 221.427 437.766 221.427C435.275 221.427 433.569 222.51 432.649 224.676C431.728 226.842 431.268 230.335 431.268 235.154C431.268 238.728 431.674 241.544 432.486 243.601C433.299 245.659 434.517 247.148 436.141 248.069C437.766 248.935 439.769 249.368 442.152 249.368C444.264 249.368 446.051 249.152 447.513 248.718C449.029 248.285 450.329 247.662 451.412 246.85C452.549 245.984 453.55 245.009 454.417 243.926L456.529 245.388C455.662 246.958 454.742 248.502 453.767 250.018C452.847 251.534 451.709 252.915 450.356 254.16C449.056 255.352 447.404 256.326 445.401 257.084C443.397 257.788 440.879 258.14 437.847 258.14ZM430.699 214.929H425.907L434.598 201.689H442.152L450.762 214.929H446.051L438.416 207.538L430.699 214.929Z" fill="#003585"/>
<path d="M384.331 258.059C380.27 258.059 377.237 257.031 375.234 254.973C373.284 252.861 372.31 249.125 372.31 243.764V228.088C372.31 226.409 372.147 225.218 371.822 224.514C371.497 223.756 370.902 223.295 370.035 223.133C369.223 222.916 368.086 222.808 366.624 222.808V219.478L380.107 218.422H383.925V241.408C383.925 243.953 384.141 245.849 384.575 247.094C385.062 248.34 385.739 249.152 386.605 249.531C387.472 249.91 388.473 250.099 389.611 250.099C391.343 250.099 392.778 249.802 393.915 249.206C395.053 248.61 396.379 247.69 397.895 246.444V227.763C397.895 226.192 397.679 225.055 397.246 224.351C396.867 223.647 396.163 223.214 395.134 223.052C394.159 222.889 392.778 222.808 390.991 222.808V219.478L406.18 218.422H409.51V246.282C409.51 248.827 409.89 250.478 410.648 251.236C411.406 251.995 412.868 252.374 415.034 252.374H415.521V255.379L401.469 257.734H398.302V250.668H397.977C396.244 252.509 394.673 253.971 393.266 255.054C391.912 256.137 390.531 256.895 389.123 257.328C387.769 257.816 386.172 258.059 384.331 258.059Z" fill="#003585"/>
<path d="M364.504 275.117H340.055V271.786C342.329 271.786 344.008 271.597 345.091 271.218C346.174 270.839 346.878 270.162 347.203 269.187C347.528 268.267 347.69 267.021 347.69 265.451V252.699H347.446C345.822 254.052 344.008 255.298 342.004 256.435C340.001 257.518 337.645 258.06 334.938 258.06C331.905 258.06 329.36 257.22 327.303 255.542C325.299 253.863 323.783 251.616 322.754 248.8C321.725 245.93 321.211 242.762 321.211 239.297C321.211 234.856 321.915 231.039 323.323 227.844C324.731 224.649 326.815 222.185 329.577 220.453C332.393 218.72 335.831 217.854 339.893 217.854C341.571 217.854 343.277 218.07 345.01 218.503C346.742 218.937 348.584 219.695 350.533 220.778L353.619 218.26H359.305V266.182C359.305 268.186 359.603 269.62 360.199 270.487C360.794 271.353 362.229 271.786 364.504 271.786V275.117ZM340.38 251.318C342.113 251.318 343.521 251.02 344.604 250.424C345.741 249.775 346.77 249.098 347.69 248.394V227.682C346.878 226.111 345.93 224.893 344.847 224.027C343.764 223.106 342.383 222.646 340.705 222.646C338.539 222.646 336.833 223.756 335.588 225.976C334.396 228.196 333.801 231.553 333.801 236.048C333.801 238.972 333.963 241.598 334.288 243.927C334.667 246.201 335.317 248.015 336.237 249.369C337.212 250.668 338.593 251.318 340.38 251.318Z" fill="#003585"/>
<path d="M297.846 258.141C293.893 258.141 290.536 257.383 287.774 255.867C285.067 254.35 282.982 252.103 281.52 249.125C280.112 246.147 279.408 242.519 279.408 238.241C279.408 233.584 280.302 229.766 282.089 226.788C283.876 223.756 286.231 221.509 289.155 220.047C292.133 218.585 295.382 217.854 298.902 217.854C304.046 217.854 308.162 219.424 311.248 222.565C314.389 225.651 315.986 230.254 316.04 236.373H290.373L290.292 232.555H303.288C303.288 230.335 303.126 228.386 302.801 226.707C302.476 225.028 301.907 223.729 301.095 222.808C300.337 221.888 299.227 221.427 297.765 221.427C295.274 221.427 293.568 222.51 292.648 224.676C291.727 226.842 291.267 230.335 291.267 235.154C291.267 238.728 291.673 241.544 292.485 243.602C293.298 245.659 294.516 247.148 296.14 248.069C297.765 248.935 299.768 249.369 302.151 249.369C304.263 249.369 306.05 249.152 307.512 248.719C309.028 248.286 310.328 247.663 311.411 246.851C312.548 245.984 313.549 245.01 314.416 243.927L316.528 245.389C315.661 246.959 314.741 248.502 313.766 250.018C312.846 251.535 311.708 252.915 310.355 254.161C309.055 255.352 307.404 256.327 305.4 257.085C303.396 257.789 300.879 258.141 297.846 258.141Z" fill="#003585"/>
<path d="M268.244 257.247H242.739V253.998C244.526 253.998 245.826 253.862 246.638 253.592C247.504 253.267 248.073 252.698 248.344 251.886C248.614 251.074 248.75 249.91 248.75 248.393V228.493C248.75 227.031 248.533 225.921 248.1 225.163C247.667 224.351 246.746 223.945 245.338 223.945C244.526 223.945 243.903 223.972 243.47 224.026C243.037 224.08 242.82 224.107 242.82 224.107V220.615L255.573 218.097H260.202V226.544H260.527C261.989 224.649 263.181 223.051 264.101 221.752C265.022 220.398 265.996 219.369 267.025 218.665C268.108 217.961 269.489 217.609 271.168 217.609C273.28 217.609 274.85 218.205 275.879 219.396C276.908 220.588 277.422 222.212 277.422 224.27C277.422 226.598 276.908 228.277 275.879 229.306C274.85 230.335 273.713 230.849 272.467 230.849C271.276 230.849 270.247 230.578 269.381 230.037C268.569 229.441 267.865 228.872 267.269 228.331C266.673 227.735 266.159 227.438 265.726 227.438C264.859 227.438 263.966 227.789 263.045 228.493C262.179 229.143 261.285 230.01 260.365 231.093V247.825C260.365 249.558 260.609 250.884 261.096 251.805C261.637 252.671 262.477 253.267 263.614 253.592C264.805 253.862 266.348 253.998 268.244 253.998V257.247Z" fill="#003585"/>
<path d="M222.96 257.247H194.938V253.755C196.995 253.755 198.566 253.592 199.649 253.267C200.732 252.888 201.463 252.211 201.842 251.237C202.275 250.208 202.491 248.692 202.491 246.688V214.198C202.491 212.303 202.275 210.868 201.842 209.893C201.463 208.919 200.732 208.269 199.649 207.944C198.566 207.619 196.995 207.457 194.938 207.457V203.883H240.586L241.154 218.828H236.93C236.606 216.879 236.227 215.281 235.793 214.036C235.414 212.736 234.819 211.734 234.006 211.031C233.194 210.272 232.003 209.758 230.433 209.487C228.916 209.162 226.832 209 224.178 209H214.513V228.088H220.767C223.095 228.088 224.936 227.925 226.29 227.6C227.698 227.221 228.7 226.49 229.295 225.407C229.891 224.324 230.189 222.7 230.189 220.534H234.006V239.54H230.189C230.189 237.32 229.891 235.723 229.295 234.748C228.7 233.773 227.698 233.151 226.29 232.88C224.936 232.609 223.095 232.474 220.767 232.474H214.513V247.257C214.513 249.098 214.756 250.479 215.244 251.399C215.785 252.32 216.651 252.942 217.843 253.267C219.088 253.592 220.794 253.755 222.96 253.755V257.247Z" fill="#003585"/>
<path fill-rule="evenodd" clip-rule="evenodd" d="M400.04 59.1229C402.802 60.6391 406.159 61.3972 410.112 61.3972C413.145 61.3972 415.663 61.0452 417.666 60.3412C419.67 59.5832 421.321 58.6085 422.621 57.4172C423.975 56.1717 425.112 54.7909 426.032 53.2747C426.5 52.5469 426.956 51.8128 427.398 51.0725C427.847 50.3223 428.283 49.5656 428.707 48.8026C428.736 48.7501 428.765 48.6975 428.794 48.6449L426.682 47.1829C426.627 47.2517 426.571 47.32 426.515 47.3878C426.023 47.9841 425.488 48.5467 424.911 49.0757C424.519 49.435 424.108 49.7787 423.677 50.107C422.594 50.9192 421.294 51.5419 419.778 51.9751C418.316 52.4083 416.529 52.6249 414.417 52.6249C412.035 52.6249 410.031 52.1917 408.407 51.3253C406.782 50.4048 405.564 48.9157 404.751 46.858C404.306 45.7293 403.983 44.3726 403.781 42.7878C403.659 41.8199 403.581 40.767 403.55 39.629H428.307C428.297 38.5269 428.237 37.474 428.127 36.4703C427.627 31.9013 426.089 28.3515 423.514 25.8209C420.428 22.6802 416.312 21.1099 411.168 21.1099C407.648 21.1099 404.399 21.8409 401.421 23.303C398.497 24.765 396.142 27.0122 394.355 30.0446C392.568 33.0228 391.674 36.8403 391.674 41.4972C391.674 45.775 392.378 49.403 393.786 52.3813C395.248 55.3595 397.333 57.6067 400.04 59.1229ZM403.819 32.6528C404.048 30.6858 404.413 29.1125 404.914 27.9327C405.834 25.7668 407.54 24.6838 410.031 24.6838C411.493 24.6838 412.603 25.144 413.361 26.0646C414.173 26.9851 414.742 28.2847 415.067 29.9633C415.228 30.7936 415.349 31.6901 415.43 32.6528C415.513 33.6365 415.554 34.6894 415.554 35.8115H403.583C403.583 35.8042 403.583 35.797 403.584 35.7897C403.63 34.6516 403.709 33.606 403.819 32.6528ZM407.002 32.6528H412.259C412.187 31.8943 412.089 31.1987 411.966 30.5636C411.708 29.2309 411.314 28.5185 410.993 28.1545L410.957 28.1141L410.923 28.0726C410.922 28.0713 410.921 28.0695 410.919 28.0675C410.887 28.0255 410.748 27.8425 410.031 27.8425C409.245 27.8425 408.817 28.0101 408.577 28.1626C408.349 28.3072 408.073 28.5745 407.821 29.1682C407.488 29.9521 407.202 31.0965 407.002 32.6528ZM391.64 28.4298C393.711 24.92 396.501 22.2314 400.009 20.4777L400.019 20.4725L400.029 20.4675C403.467 18.7799 407.196 17.9512 411.168 17.9512C416.996 17.9512 421.97 19.754 425.748 23.5874C429.673 27.4578 431.407 32.9878 431.465 39.6011L431.493 42.7878H406.969C407.143 43.9779 407.39 44.9403 407.69 45.6982C408.28 47.1941 409.059 48.0535 409.93 48.5577C410.979 49.1079 412.428 49.4662 414.417 49.4662C416.333 49.4662 417.798 49.2674 418.881 48.9466L418.895 48.9422L418.91 48.938C420.111 48.595 421.045 48.1301 421.772 47.5869C422.706 46.8741 423.518 46.0818 424.215 45.2097L426.057 42.9081L432.938 47.6722L431.56 50.1708C430.665 51.792 429.715 53.3851 428.71 54.9498C427.634 56.7148 426.313 58.3126 424.759 59.7418L424.755 59.7456C423.103 61.2598 421.084 62.4251 418.784 63.2956L418.749 63.3089L418.713 63.3214C416.263 64.1823 413.362 64.5559 410.112 64.5559C405.761 64.5559 401.852 63.7209 398.52 61.8918L398.509 61.8854L398.497 61.8789C395.191 60.0275 392.675 57.2848 390.951 53.7732L390.94 53.7523L390.93 53.7312C389.273 50.2246 388.516 46.1079 388.516 41.4972C388.516 36.4616 389.479 32.0371 391.64 28.4298Z" fill="#003585"/>
<path fill-rule="evenodd" clip-rule="evenodd" d="M347.763 61.2294L347.744 61.2135C345.218 59.0863 343.378 56.3316 342.182 53.0586L342.179 53.0496L342.176 53.0405C341.009 49.7852 340.447 46.2511 340.447 42.4713C340.447 37.1786 341.305 32.5711 343.237 28.8365L343.247 28.8175L343.257 28.7987C345.187 25.1876 347.826 22.3948 351.213 20.5985C354.518 18.8206 358.149 17.9506 362.044 17.9506C363.516 17.9506 365 18.1102 366.494 18.4206C366.665 18.455 366.837 18.492 367.008 18.5313V13.6367C367.008 13.2051 366.993 12.856 366.97 12.5793C366.857 12.5745 366.731 12.5717 366.592 12.5717C366.347 12.5717 365.964 12.5902 365.416 12.64L365.274 12.6529H361.078V3.45913L376.891 0H384.94V51.2435C384.94 52.0545 385.001 52.6125 385.075 52.97C385.282 53.0079 385.585 53.0395 386.005 53.0395H390.87V62.4014L373.321 64.0679H367.17V61.6992C366.86 61.8892 366.546 62.0768 366.226 62.262C363.623 63.7686 360.68 64.4741 357.495 64.4741C353.805 64.4741 350.493 63.4562 347.782 61.245L347.763 61.2294ZM367.17 57.9309C366.379 58.4787 365.536 59.0112 364.643 59.5284C362.585 60.7197 360.203 61.3153 357.495 61.3153C354.409 61.3153 351.837 60.476 349.779 58.7974C347.721 57.0646 346.178 54.7903 345.149 51.9745C344.12 49.1046 343.606 45.9369 343.606 42.4713C343.606 37.4895 344.418 33.4283 346.043 30.2877C347.721 27.147 349.941 24.8456 352.703 23.3836C355.519 21.8674 358.632 21.1093 362.044 21.1093C363.289 21.1093 364.562 21.2447 365.861 21.5154C366.244 21.5918 366.626 21.6833 367.008 21.7899C367.979 22.0611 368.951 22.4298 369.923 22.8962H370.166V13.6367C370.166 11.8497 369.95 10.7126 369.517 10.2252C369.207 9.78297 368.5 9.52131 367.396 9.44027C367.148 9.42209 366.88 9.413 366.592 9.413C366.213 9.413 365.726 9.44007 365.13 9.49422H364.237V6.00158L377.233 3.15872H381.781V51.2435C381.781 53.3012 382.106 54.6549 382.756 55.3047C383.406 55.9004 384.489 56.1982 386.005 56.1982H387.711V59.5284L373.172 60.9092H370.329V55.7109H370.004C369.146 56.4769 368.201 57.2169 367.17 57.9309ZM365.189 51.0115C365.726 50.7266 366.331 50.3729 367.008 49.9457V32.4413C366.741 31.6278 366.268 30.7916 365.515 29.931C365.139 29.5016 364.444 29.0603 362.856 29.0603C362.283 29.0603 361.587 29.2391 360.781 30.7786C359.956 32.3537 359.354 35.2908 359.354 40.0346C359.354 45.0165 359.903 48.1403 360.678 49.8172C361.045 50.5834 361.404 50.9524 361.662 51.1331C361.894 51.2956 362.196 51.415 362.694 51.415C363.919 51.415 364.707 51.228 365.189 51.0115ZM357.82 51.1623C356.737 48.8339 356.196 45.1246 356.196 40.0346C356.196 35.1611 356.791 31.5872 357.983 29.313C359.174 27.0387 360.798 25.9015 362.856 25.9015C365.076 25.9015 366.755 26.5513 367.892 27.8509C369.029 29.1505 369.787 30.5313 370.166 31.9934V51.6497C368.813 52.5702 367.621 53.3012 366.592 53.8427C365.564 54.33 364.264 54.5737 362.694 54.5737C360.528 54.5737 358.903 53.4366 357.82 51.1623Z" fill="#003585"/>
<path fill-rule="evenodd" clip-rule="evenodd" d="M500.973 163.403L500.961 163.397C497.612 161.569 495.063 158.862 493.316 155.396L493.306 155.376L493.296 155.355C491.617 151.894 490.85 147.83 490.85 143.28C490.85 138.311 491.825 133.944 494.013 130.385C496.111 126.919 498.938 124.264 502.492 122.533L502.502 122.528L502.513 122.523C505.995 120.857 509.773 120.039 513.797 120.039C519.7 120.039 524.739 121.819 528.566 125.602C532.542 129.422 534.298 134.881 534.357 141.408L534.386 144.553H509.543C509.719 145.728 509.97 146.678 510.273 147.426C510.871 148.903 511.66 149.751 512.542 150.249C513.605 150.792 515.073 151.145 517.088 151.145C519.028 151.145 520.512 150.949 521.609 150.632L521.624 150.628L521.639 150.624C522.855 150.285 523.802 149.826 524.539 149.29C525.485 148.587 526.307 147.805 527.014 146.944L528.879 144.672L535.85 149.374L534.453 151.841C533.547 153.441 532.585 155.013 531.567 156.558C530.477 158.3 529.138 159.877 527.565 161.287L527.56 161.291C525.887 162.786 523.842 163.936 521.511 164.795L521.476 164.808L521.44 164.821C518.957 165.67 516.019 166.039 512.727 166.039C508.319 166.039 504.359 165.215 500.984 163.409L500.973 163.403ZM528.854 154.904C529.328 154.186 529.789 153.461 530.238 152.731C530.693 151.99 531.134 151.243 531.563 150.49C531.593 150.438 531.622 150.386 531.651 150.335L529.512 148.892C529.456 148.959 529.4 149.027 529.343 149.094C528.844 149.682 528.302 150.238 527.718 150.76C527.321 151.114 526.904 151.454 526.468 151.778C525.371 152.579 524.054 153.194 522.518 153.622C521.037 154.049 519.227 154.263 517.088 154.263C514.674 154.263 512.645 153.835 510.999 152.98C509.354 152.072 508.119 150.602 507.297 148.571C506.845 147.457 506.518 146.118 506.314 144.553C506.189 143.598 506.111 142.559 506.079 141.436H531.158C531.148 140.348 531.087 139.309 530.976 138.318C530.469 133.808 528.912 130.304 526.303 127.807C523.177 124.707 519.008 123.157 513.797 123.157C510.231 123.157 506.94 123.878 503.923 125.321C500.961 126.764 498.575 128.983 496.765 131.976C494.954 134.915 494.049 138.683 494.049 143.28C494.049 147.502 494.762 151.083 496.189 154.022C497.67 156.962 499.782 159.18 502.524 160.677C505.322 162.173 508.723 162.921 512.727 162.921C515.799 162.921 518.349 162.574 520.379 161.879C522.409 161.131 524.082 160.169 525.398 158.993C526.77 157.764 527.921 156.401 528.854 154.904ZM506.352 134.55C506.24 135.491 506.161 136.523 506.114 137.646C506.113 137.653 506.113 137.66 506.113 137.668H518.24C518.24 136.56 518.198 135.521 518.114 134.55C518.031 133.6 517.909 132.715 517.746 131.895C517.417 130.239 516.841 128.956 516.018 128.047C515.25 127.139 514.126 126.684 512.645 126.684C510.121 126.684 508.394 127.753 507.461 129.891C506.953 131.056 506.584 132.608 506.352 134.55ZM514.901 134.55C514.829 133.801 514.729 133.115 514.605 132.488C514.343 131.172 513.944 130.469 513.619 130.11L513.583 130.07L513.548 130.029C513.547 130.028 513.546 130.026 513.544 130.024C513.512 129.983 513.371 129.802 512.645 129.802C511.849 129.802 511.415 129.967 511.171 130.118C510.941 130.261 510.662 130.525 510.406 131.111C510.068 131.884 509.779 133.014 509.576 134.55H514.901Z" fill="#003585"/>
</svg>
